
<svg width="918px" height="467px" viewBox="0 0 918 467" version="1.1" xmlns="http://www.w3.org/2000/svg" xmlns:xlink="http://www.w3.org/1999/xlink">
    <!-- Generator: Sketch 47 (45396) - http://www.bohemiancoding.com/sketch -->
    <desc>Created with Sketch.</desc>
    <defs></defs>
    <g id="Page-1" stroke="none" stroke-width="1" fill="none" fill-rule="evenodd">
        <g id="Background" transform="translate(-47.000000, -33.000000)" fill-rule="nonzero">
            <g id="Group-2" transform="translate(47.000000, 33.000000)">
                <path d="M907.292251,45.5892241 C907.292251,43.6494458 908.26548,40.7397783 908.26548,38.7988916 C908.26548,17.4591132 890.745124,0 869.332963,0 C853.760178,0 841.107082,8.73011084 834.293363,21.3397783 C829.427215,14.5494458 820.667037,9.7 810.93363,9.7 C794.387616,9.7 781.733407,22.3096675 781.733407,38.8 C781.733407,40.7397783 781.733407,43.6494458 782.706637,45.5903325 C775.892918,51.4107759 772,59.1698892 772,67.9 C772,84.3892241 784.653096,97 801.200222,97 L888.799778,97 C905.345792,97 918,84.3903325 918,67.9 C917.998888,59.1687807 914.10597,51.4096675 907.292251,45.5892241 Z" id="Shape" fill="#F5F5F5"></path>
                <g id="001-house" transform="translate(716.000000, 270.000000)">
                    <rect id="Rectangle-path" fill="#F05540" x="151" y="29" width="23" height="41"></rect>
                    <rect id="Rectangle-path" fill="#F3705A" x="142" y="8" width="41" height="22"></rect>
                    <path d="M18,109.724353 L18,203 L183,203 L183,109.724353 C150.589391,77.2256835 132.489756,59.0768705 100.499803,27 L100.499803,27 C68.5102443,59.4986691 50.4106086,77.647482 18,109.724353 Z" id="Shape" fill="#FFD15C"></path>
                    <path d="M183,109.526656 C150.671887,77.1056531 132.618321,59.0002126 100.709792,27 C84.3357467,42.9999089 71.7403268,55.6315198 59.144907,68.2631307 C46.5494871,80.8947416 33.9540673,93.5263525 18,109.526261 L18,128.473678 C50.3281131,96.0526747 68.3816794,77.9472342 100.290208,45.9470216 C132.618321,78.3680247 150.671887,96.4734653 182.580415,128.473678 L182.580415,131 L182.580415,131 L182.580415,109.526261 L183,109.526261 L183,109.526656 Z" id="Shape" fill="#F7B64C"></path>
                    <path d="M86,203 L36,203 L36,153.948528 C36,139.994193 47.4407386,129 61,129 L61,129 C74.9831249,129 86,140.417184 86,153.948528 L86,203 Z" id="Shape" fill="#415A6B"></path>
                    <rect id="Rectangle-path" fill="#344A5E" x="100" y="129" width="65" height="57"></rect>
                    <g id="Group" transform="translate(107.000000, 136.000000)" fill="#8AD7F8">
                        <rect id="Rectangle-path" x="0.367545455" y="0.158558559" width="22.2705758" height="43.5508829"></rect>
                        <rect id="Rectangle-path" x="29.3614848" y="0.158558559" width="22.2705758" height="43.5508829"></rect>
                    </g>
                    <path d="M198.2125,92.1690914 L110.258465,3.80515143 C105.208465,-1.26838381 96.3709648,-1.26838381 91.3209648,3.80515143 L3.7875,92.1690914 C-1.2625,97.2426267 -1.2625,106.121313 3.7875,111.194849 C8.8375,116.268384 17.675,116.268384 22.725,111.194849 L101,32.5550523 L179.275,111.194849 C184.325,116.268384 193.1625,116.268384 198.2125,111.194849 C203.2625,105.698783 203.2625,97.2426267 198.2125,92.1690914 Z" id="Shape" fill="#F3705A"></path>
                </g>
                <g id="007-tree" transform="translate(54.000000, 97.000000)">
                    <path d="M117.346851,203.326943 C109.431156,192.814303 96.7453383,186 82.4443828,186 C58.4511528,186 39,205.174684 39,228.828479 C39,252.482275 58.4504288,271.656959 82.4443828,271.656959 C87.3180303,271.656959 91.9983825,270.854059 96.3725029,269.394565 C101.600163,272.32069 107.63865,274 114.07893,274 C133.918122,274 150,258.145398 150,238.588177 C150,220.115764 135.652712,204.954867 117.346851,203.326943 Z" id="Shape" fill="#006C70"></path>
                    <path d="M150,370 C141.716062,370 135,363.065298 135,354.511678 L135,161.488322 C135,152.934702 141.716062,146 150,146 C158.283938,146 165,152.934702 165,161.488322 L165,354.511678 C165,363.066022 158.283938,370 150,370 Z" id="Shape" fill="#CC7400"></path>
                    <path d="M150.333333,354.511678 L150.333333,161.488322 C150.333333,155.75912 153.421217,150.768422 158,148.088809 C155.742863,146.767465 153.129488,146 150.333333,146 C141.865308,146 135,152.934702 135,161.488322 L135,354.511678 C135,363.065298 141.865308,370 150.333333,370 C153.129488,370 155.742863,369.231811 158,367.911191 C153.421217,365.231578 150.333333,360.241604 150.333333,354.511678 Z" id="Shape" fill="#AA6100"></path>
                    <path d="M282.490158,129.379354 C284.432629,123.911109 285.498296,118.022063 285.498296,111.880246 C285.498296,83.2273665 262.468704,60 234.059796,60 C205.650889,60 182.621297,83.2273665 182.621297,111.880246 C182.621297,115.174954 182.939417,118.392165 183.521081,121.515946 C154.261938,126.616261 132,152.322807 132,183.289732 C132,217.92364 159.837297,246 194.176307,246 C224.77974,246 250.201335,223.692457 255.373838,194.323998 C260.901083,197.912036 267.473888,200.002282 274.535722,200.002282 C294.121287,200.002282 310,183.987929 310,164.233441 C310.002154,147.238425 298.246076,133.021713 282.490158,129.379354 Z" id="Shape" fill="#028A8F"></path>
                    <g id="Group" transform="translate(130.000000, 58.000000)">
                        <path d="M127.974831,55.0932778 C127.974831,34.9295556 121.021124,15.8932222 108.825169,0.822611111 C106.863461,0.594388889 104.870112,0.464388889 102.847281,0.464388889 C74.3989213,0.464388889 51.3373483,23.6260556 51.3373483,52.1978889 C51.3373483,55.4832778 51.6559101,58.6913889 52.238382,61.8063333 C22.9386067,66.8922222 0.645752809,92.5260556 0.645752809,123.405389 C0.645752809,149.903722 17.0642697,172.536 40.234427,181.643222 C50.5003146,170.213333 57.344,155.624444 59.0921348,139.514556 C98.3241348,131.634389 127.974831,96.7777778 127.974831,55.0932778 Z" id="Shape" fill="#006C70"></path>
                        <path d="M73.7330337,167.442889 C71.2708315,167.442889 69.0071011,165.810667 68.3052584,163.313222 C67.4595955,160.301556 69.2048539,157.170722 72.2042247,156.321389 C84.6497079,152.796222 94.1526292,142.250333 96.4156404,129.455444 C96.9607191,126.373722 99.8903371,124.315389 102.957303,124.867167 C106.024989,125.413889 108.070831,128.356222 107.525753,131.437222 C104.510562,148.483111 91.8486292,162.533222 75.2675955,167.229833 C74.7563146,167.372833 74.2407191,167.442889 73.7330337,167.442889 Z" id="Shape" fill="#00A0A6"></path>
                    </g>
                    <path d="M114.996285,137.735859 C106.048362,137.735859 97.6285272,140.003099 90.2756908,143.993732 C82.660253,138.307189 73.2195919,134.939957 62.9925697,134.939957 C62.605882,134.939957 62.2249659,134.959483 61.841164,134.969608 C56.7290957,123.778769 45.4682613,116 32.3872535,116 C14.5000648,116 0,130.535652 0,148.466741 C0,160.983935 7.07003508,171.839208 17.4225864,177.258166 C17.3352932,178.418907 17.2754143,179.587602 17.2754143,180.770762 C17.2754143,206.082135 37.7438873,226.600844 62.9932911,226.600844 C67.6068497,226.600844 72.0573647,225.909462 76.2560998,224.635179 C85.7775613,235.290125 99.6038085,242 114.996285,242 C143.71722,242 167,218.660077 167,189.868653 C167,161.077228 143.71722,137.735859 114.996285,137.735859 Z" id="Shape" fill="#028A8F"></path>
                    <g id="Group" transform="translate(0.000000, 116.000000)" fill="#006C70">
                        <path d="M56.3632198,80.5103182 C46.0344138,75.1102403 38.9793836,64.2913442 38.9793836,51.8153766 C38.9793836,35.082487 51.6649052,21.3170455 67.931569,19.6318636 C66.3162759,19.4581558 64.6786681,19.3601299 63.0165862,19.3601299 C62.6307586,19.3601299 62.2506897,19.3795909 61.8677414,19.3896818 C56.7677629,8.23634416 45.5312543,0.483642857 32.4793405,0.483642857 C14.6319353,0.483642857 0.16412069,14.9705844 0.16412069,32.8415844 C0.16412069,45.3168312 7.21843103,56.1357273 17.5486767,61.536526 C17.4608578,62.6933766 17.4018319,63.8581558 17.4018319,65.0373506 C17.4018319,90.2639026 37.8247802,110.713851 63.0180259,110.713851 C63.6183621,110.713851 64.2150991,110.700877 64.8103966,110.677812 C59.41025,103.173058 56.2185345,93.967987 56.2185345,84.0118636 C56.216375,82.8319481 56.2761207,81.6671688 56.3632198,80.5103182 Z" id="Shape"></path>
                        <path d="M114.903918,22.1488247 C105.975897,22.1488247 97.5747888,24.4084675 90.238306,28.3857273 C82.6390862,22.7182403 73.2201422,19.3622922 63.0158664,19.3622922 C62.6300388,19.3622922 62.2499698,19.3817532 61.8670216,19.3918442 C56.7670431,8.23850649 45.5305345,0.485805195 32.4786207,0.485805195 C29.09975,0.485805195 25.8425302,1.00692857 22.7818233,1.97061039 C29.5467629,38.1184091 61.2947586,65.5613571 99.3282888,65.5613571 C105.362603,65.5613571 111.278866,64.8852662 117.033888,63.5417338 C130.732927,75.2443052 147.732375,82.2956883 165.895784,83.694 C166.475246,80.586 166.79197,77.3842987 166.79197,74.1076364 C166.79269,45.4105325 143.560974,22.1488247 114.903918,22.1488247 Z" id="Shape"></path>
                    </g>
                    <path d="M203.272101,58.557622 C203.582927,56.2726436 203.758265,53.944389 203.758265,51.5743008 C203.757541,23.0914096 180.562954,0 151.949558,0 C124.272988,0 101.668174,21.6055966 100.219101,48.7974173 C100.193017,48.7974173 100.168383,48.7952535 100.1423,48.7952535 C69.6878568,48.7952535 45,73.3717548 45,103.688832 C45,134.005909 69.6878568,158.58241 100.1423,158.58241 C108.810654,158.58241 117.00806,156.585939 124.306317,153.038019 C135.865572,167.624953 153.766695,177 173.87838,177 C208.739454,177 237,148.866924 237,114.163092 C237,90.0287285 223.323649,69.0838138 203.272101,58.557622 Z" id="Shape" fill="#028A8F"></path>
                    <g id="Group" transform="translate(43.000000, 0.000000)">
                        <path d="M82.3292181,80.1708108 C83.8458848,53.0018018 106.315021,31.4126126 133.823868,31.4126126 C141.846502,31.4126126 149.439198,33.2497297 156.207305,36.5246847 C149.785597,15.3859459 130.160391,0.000720720721 106.938683,0.000720720721 C79.4291152,0.000720720721 56.9606996,21.5899099 55.5203704,48.7610811 C25.1733539,48.7589189 0.634465021,73.3167568 0.634465021,103.610811 C0.634465021,124.843964 12.6972222,143.244685 30.3311728,152.361802 C28.5170782,146.90955 27.5196502,141.084685 27.5196502,135.021982 C27.5196502,104.729369 52.0585391,80.1708108 82.3292181,80.1708108 Z" id="Shape" fill="#006C70"></path>
                        <path d="M128.735185,159.901982 C125.613992,159.901982 123.084774,157.37009 123.084774,154.247207 C123.084774,151.124324 125.613992,148.592432 128.735185,148.592432 C147.751852,148.592432 163.223148,133.109189 163.223148,114.077838 C163.223148,110.954955 165.752366,108.423063 168.87356,108.423063 C171.994753,108.423063 174.523971,110.954955 174.523971,114.077838 C174.523971,139.345586 153.982716,159.901982 128.735185,159.901982 Z" id="Shape" fill="#00A0A6"></path>
                        <ellipse id="Oval" fill="#00A0A6" cx="50.9012346" cy="132.981622" rx="14.3521605" ry="14.3632432"></ellipse>
                    </g>
                    <circle id="Oval" fill="#00A0A6" cx="115" cy="211" r="14"></circle>
                    <g id="Group" transform="translate(124.000000, 64.000000)" fill="#00A0A6">
                        <ellipse id="Oval" cx="41.8421609" cy="14.5817895" rx="14.2022759" ry="14.5097105"></ellipse>
                        <ellipse id="Oval" cx="56.0373103" cy="45.9397719" rx="5.41609195" ry="5.53333333"></ellipse>
                        <ellipse id="Oval" cx="6.12303448" cy="48.7887105" rx="5.41609195" ry="5.53333333"></ellipse>
                        <ellipse id="Oval" cx="22.2266437" cy="77.1230175" rx="5.41609195" ry="5.53333333"></ellipse>
                    </g>
                    <circle id="Oval" fill="#00A0A6" cx="78.5" cy="195.5" r="5.5"></circle>
                    <path d="M310,356.166339 C310,343.221705 300.696874,332.474942 288.467665,330.34244 C286.056383,310.427953 269.247252,295 248.855398,295 C226.808263,295 208.93569,313.029663 208.93569,335.270582 C208.93569,335.988921 208.95585,336.70145 208.99257,337.40962 C200.165364,341.328891 194,350.224242 194,360.578061 C194,363.909006 194.64368,367.085968 195.804321,369.999274 L306.085357,370 C308.564319,365.984127 310,361.245557 310,356.166339 Z" id="Shape" fill="#028A8F"></path>
                    <g id="Group" transform="translate(192.000000, 295.000000)">
                        <path d="M41.1096575,54.1935714 C41.0729795,53.4971429 41.0528425,52.7957143 41.0528425,52.09 C41.0528425,30.2178571 58.905,12.4871429 80.9269521,12.4871429 C81.9237329,12.4871429 82.9090068,12.5342857 83.887089,12.605 C76.6406507,5.16285714 66.4908904,0.530714286 55.242226,0.530714286 C33.220274,0.530714286 15.3681164,18.2614286 15.3681164,40.1335714 C15.3681164,40.84 15.3882534,41.5407143 15.4249315,42.2371429 C6.60780822,46.0914286 0.449486301,54.8392857 0.449486301,65.0214286 C0.449486301,68.2971429 1.09243151,71.4214286 2.25174658,74.2864286 L26.2967466,74.2864286 C27.2741096,65.2742857 33.0821918,57.7028571 41.1096575,54.1935714 Z" id="Shape" fill="#006C70"></path>
                        <ellipse id="Oval" fill="#00A0A6" cx="69.5574658" cy="46.1078571" rx="14.3325" ry="14.235"></ellipse>
                        <ellipse id="Oval" fill="#00A0A6" cx="98.8402397" cy="51.5407143" rx="5.46575342" ry="5.42857143"></ellipse>
                    </g>
                    <path d="M105.335897,368 C106.40542,365.277551 107,362.318367 107,359.220851 C107,345.834645 96.0309046,334.981928 82.5011524,334.981928 C81.2946961,334.981928 80.1098608,335.072486 78.9502501,335.238628 C73.9629873,320.569634 59.9597334,310 43.453479,310 C22.7685902,310 6,326.590681 6,347.05611 C6,354.82985 8.42372325,362.040275 12.5576741,367.999287 L105.335897,367.999287 L105.335897,368 L105.335897,368 Z" id="Shape" fill="#028A8F"></path>
                    <g id="Group" transform="translate(6.000000, 310.000000)">
                        <path d="M60.1305833,12.0859268 C61.7825185,12.0859268 63.4080741,12.1983902 65.0029722,12.4063415 C58.2241204,4.94060976 48.4116111,0.241902439 37.4854537,0.241902439 C17.0227037,0.241902439 0.434194444,16.6990488 0.434194444,36.9997561 C0.434194444,44.7109268 2.83188889,51.8633171 6.92144444,57.7743659 L24.1894074,57.7743659 C23.4686019,54.9146829 23.0793241,51.9248537 23.0793241,48.8430732 C23.0793241,28.5430732 39.6678333,12.0859268 60.1305833,12.0859268 Z" id="Shape" fill="#006C70"></path>
                        <ellipse id="Oval" fill="#00A0A6" cx="44.9708519" cy="35.4769024" rx="5.41851852" ry="5.37560976"></ellipse>
                        <ellipse id="Oval" fill="#00A0A6" cx="71.2107407" cy="44.193878" rx="5.41851852" ry="5.37560976"></ellipse>
                    </g>
                </g>
                <path d="M135.292251,62.5892241 C135.292251,60.6494458 136.26548,57.7397783 136.26548,55.7988916 C136.26548,34.4591132 118.745124,17 97.3329626,17 C81.760178,17 69.1070819,25.7301108 62.293363,38.3397783 C57.4272154,31.5494458 48.6670374,26.7 38.9336299,26.7 C22.3876158,26.7 9.73340748,39.3096675 9.73340748,55.8 C9.73340748,57.7397783 9.73340748,60.6494458 10.706637,62.5903325 C3.89291809,68.4107759 0,76.1698892 0,84.9 C0,101.389224 12.6530961,114 29.2002225,114 L116.799778,114 C133.345792,114 146,101.390333 146,84.9 C145.998888,76.1687807 142.10597,68.4096675 135.292251,62.5892241 Z" id="Shape" fill="#F5F5F5" transform="translate(73.000000, 65.500000) scale(-1, 1) translate(-73.000000, -65.500000) "></path>
                <g id="008-stork" transform="translate(367.000000, 305.000000)">
                    <rect id="XMLID_1556_" fill="#FF9811" x="45" y="96" width="9" height="66"></rect>
                    <polygon id="XMLID_34_" fill="#FF9811" points="45 162 45 153 53.6666667 153 71 162"></polygon>
                    <path d="M136.794802,18.2488271 C136.794802,18.2488271 138.193973,26.177253 133.685142,30.6851684 C129.177191,35.1939632 121.248702,33.7948034 121.248702,33.7948034 C121.248702,33.7948034 119.694312,26.0215954 124.357483,21.3575826 C129.021532,16.6940096 136.794802,18.2488271 136.794802,18.2488271 Z" id="XMLID_33_" fill="#EA348B"></path>
                    <path d="M140,82.2941176 C140,93.1770196 131.269633,102 120.5,102 C109.730367,102 101,93.1770196 101,82.2941176 C101,66.5294118 120.5,35 120.5,35 C120.5,35 140,66.5294118 140,82.2941176 Z" id="XMLID_1557_" fill="#EA348B"></path>
                    <path d="M121,102 C109.954222,102 101,93.1770196 101,82.2941176 C101,66.5294118 121,35 121,35 C121,35 121,70.8651438 121,102 Z" id="XMLID_1558_" fill="#AF2768"></path>
                    <polygon id="XMLID_1559_" fill="#FF9811" points="88.8333333 14 133 40 80 27"></polygon>
                    <ellipse id="XMLID_1560_" fill="#CCF8F3" cx="71" cy="18" rx="22" ry="18"></ellipse>
                    <ellipse id="XMLID_28_" fill="#CCF8F3" transform="translate(49.000000, 81.000000) rotate(-102.350456) translate(-49.000000, -81.000000) " cx="49" cy="81" rx="24" ry="44"></ellipse>
                    <path d="M49,56 C47.2935154,56.2593384 45.5691276,56.5771378 43.8316398,56.9599915 C20.273157,62.1524731 3.47511302,76.9347601 6.3125585,89.9772822 C8.94215171,102.070362 27.5292099,108.420636 49,105.142863 L49,56 Z" id="XMLID_1561_" fill="#00D7DF"></path>
                    <g id="XMLID_1562_" transform="translate(49.000000, 11.000000)" fill="#CCF8F3">
                        <path d="M37.26272,69.9208696 C33.61776,69.9208696 30.66272,67.0008696 30.66272,63.3991304 C30.66272,54.3734783 23.18624,45.3730435 15.95616,36.6682609 C8.26056,27.4034783 0.30272,17.823913 0.30272,6.8226087 C0.30272,3.22086957 3.25776,0.300869565 6.90272,0.300869565 C10.54768,0.300869565 13.50272,3.22086957 13.50272,6.8226087 C13.50272,13.1556522 19.6504,20.5573913 26.15932,28.3926087 C34.45728,38.3830435 43.86272,49.7056522 43.86272,63.3986957 C43.86272,67.0008696 40.90812,69.9208696 37.26272,69.9208696 Z" id="XMLID_1563_"></path>
                    </g>
                    <circle id="XMLID_1564_" fill="#003638" cx="75.5" cy="18.5" r="3.5"></circle>
                    <circle id="XMLID_1565_" fill="#FF9811" cx="49.5" cy="129.5" r="6.5"></circle>
                    <path d="M49,94.2472376 C35.5157959,90.4879413 24.1103156,81.1884435 17.4166676,69 C7.27579524,75.8576562 -0.217563399,90.8232693 1.16446931,98.0948944 C2.51507234,105.204378 26.6988986,109.277354 49,105.649715 L49,94.2472376 Z" id="XMLID_1566_" fill="#006C70"></path>
                    <path d="M62.1455186,95.7046677 C57.6124769,95.7046677 53.205581,95.0820056 49,93.9310242 L49,105 C50.7055607,104.728121 52.4011853,104.415933 54.0730496,104.052284 C64.929799,101.692429 74.3332793,97.3024905 81,92 C75.1489072,94.3830117 68.7794068,95.7046677 62.1455186,95.7046677 Z" id="XMLID_1567_" fill="#00A0A6"></path>
                </g>
                <g id="010-books" transform="translate(462.000000, 355.000000)">
                    <path d="M44,43 L9.68080357,43 C5.99107812,43 3,39.9359688 3,36.15625 L3,34.84375 C3,31.0640312 5.99107812,28 9.68080357,28 L44,28 L44,43 Z" id="Shape" fill="#FFEBB7"></path>
                    <rect id="Rectangle-path" fill="#5C546A" x="4" y="30" width="3" height="12"></rect>
                    <path d="M39.9866071,26 L1,26 L1,16 L39.9866071,16 C41.0985491,16 42,16.8794643 42,17.9642857 L42,24.0357143 C42,25.1205357 41.0985491,26 39.9866071,26 Z" id="Shape" fill="#FFEBB7"></path>
                    <rect id="Rectangle-path" fill="#FFEBB7" x="7" y="2" width="38" height="11"></rect>
                    <path d="M44.5,45 L10,45 C5.0374375,45 1,40.9629375 1,36 C1,31.0370625 5.0374375,27 10,27 L44.5,27 C45.328375,27 46,27.671625 46,28.5 C46,29.328375 45.328375,30 44.5,30 L10,30 C6.69165625,30 4,32.6916563 4,36 C4,39.3083438 6.69165625,42 10,42 L44.5,42 C45.328375,42 46,42.671625 46,43.5 C46,44.328375 45.328375,45 44.5,45 Z" id="Shape" fill="#00C37A"></path>
                    <path d="M40.2711864,27 L0.745762712,27 C0.333542373,27 0,26.6645625 0,26.25 C0,25.8354375 0.333542373,25.5 0.745762712,25.5 L40.2711864,25.5 C41.5048644,25.5 42.5084746,24.4906875 42.5084746,23.25 L42.5084746,18.75 C42.5084746,17.5093125 41.5048644,16.5 40.2711864,16.5 L0.745762712,16.5 C0.333542373,16.5 0,16.1645625 0,15.75 C0,15.3354375 0.333542373,15 0.745762712,15 L40.2711864,15 C42.327161,15 44,16.6823437 44,18.75 L44,23.25 C44,25.3176562 42.327161,27 40.2711864,27 Z" id="Shape" fill="#009BCA"></path>
                    <path d="M45,6 L10.7446809,6 C10.3334309,6 10,5.776125 10,5.5 L10,5.5 C10,5.223875 10.3334309,5 10.7446809,5 L45,5 L45,6 Z" id="Shape" fill="#E6BE94"></path>
                    <path d="M45,9 L10.7446809,9 C10.3334309,9 10,8.776125 10,8.5 L10,8.5 C10,8.223875 10.3334309,8 10.7446809,8 L45,8 L45,9 Z" id="Shape" fill="#E6BE94"></path>
                    <path d="M45,11 L10.7446809,11 C10.3334309,11 10,10.776125 10,10.5 L10,10.5 C10,10.223875 10.3334309,10 10.7446809,10 L45,10 L45,11 Z" id="Shape" fill="#E6BE94"></path>
                    <path d="M1,18 L39.2641509,18 C39.6705236,18 40,18.223875 40,18.5 L40,18.5 C40,18.776125 39.6705236,19 39.2641509,19 L1,19 C1,19 1,18 1,18 Z" id="Shape" fill="#E6BE94"></path>
                    <path d="M1,21 L39.2641509,21 C39.6705236,21 40,21.223875 40,21.5 L40,21.5 C40,21.776125 39.6705236,22 39.2641509,22 L1,22 C1,22 1,21 1,21 Z" id="Shape" fill="#E6BE94"></path>
                    <path d="M1,24 L39.2641509,24 C39.6705236,24 40,24.223875 40,24.5 L40,24.5 C40,24.776125 39.6705236,25 39.2641509,25 L1,25 C1,25 1,24 1,24 Z" id="Shape" fill="#E6BE94"></path>
                    <path d="M45.5357143,15 L10.3928571,15 C7.97047098,15 6,12.9814687 6,10.5 L6,4.5 C6,2.01853125 7.97047098,0 10.3928571,0 L45.5357143,0 C46.3443661,0 47,0.671625 47,1.5 C47,2.328375 46.3443661,3 45.5357143,3 L10.3928571,3 C9.58530357,3 8.92857143,3.67275 8.92857143,4.5 L8.92857143,10.5 C8.92857143,11.326875 9.58530357,12 10.3928571,12 L45.5357143,12 C46.3443661,12 47,12.671625 47,13.5 C47,14.328375 46.3443661,15 45.5357143,15 Z" id="Shape" fill="#FF4F19"></path>
                    <path d="M10.7446809,40 C10.3330585,40 10,40.223625 10,40.5 C10,40.776375 10.3330585,41 10.7446809,41 L45,41 L45,40 L10.7446809,40 Z" id="Shape" fill="#E6BE94"></path>
                    <path d="M10.7446809,37 C10.3330585,37 10,37.223625 10,37.5 C10,37.776375 10.3330585,38 10.7446809,38 L45,38 L45,37 L10.7446809,37 Z" id="Shape" fill="#E6BE94"></path>
                    <path d="M10.7446809,35 C10.3330585,35 10,35.223625 10,35.5 C10,35.776375 10.3330585,36 10.7446809,36 L45,36 L45,35 L10.7446809,35 Z" id="Shape" fill="#E6BE94"></path>
                    <path d="M10.7446809,31 C10.3330585,31 10,31.223625 10,31.5 C10,31.776375 10.3330585,32 10.7446809,32 L45,32 L45,31 L10.7446809,31 Z" id="Shape" fill="#E6BE94"></path>
                </g>
                <path d="M506,390.294118 C506,401.17702 497.269633,410 486.5,410 C475.730367,410 467,401.17702 467,390.294118 C467,374.529412 486.5,343 486.5,343 C486.5,343 506,374.529412 506,390.294118 Z" id="XMLID_1557_" fill="#EA348B"></path>
                <path d="M487,410 C475.954222,410 467,401.17702 467,390.294118 C467,374.529412 487,343 487,343 C487,343 487,378.865144 487,410 Z" id="XMLID_1558_" fill="#AF2768"></path>
            </g>
        </g>
    </g>
</svg>